<?xml version="1.0" standalone="no"?>
<!DOCTYPE svg PUBLIC "-//W3C//DTD SVG 20010904//EN"
 "http://www.w3.org/TR/2001/REC-SVG-20010904/DTD/svg10.dtd">
<svg version="1.0" xmlns="http://www.w3.org/2000/svg"
 width="36.000000pt" height="36.000000pt" viewBox="0 0 36.000000 36.000000"
 preserveAspectRatio="xMidYMid meet">

<g transform="translate(0.000000,36.000000) scale(0.100000,-0.100000)"
fill="#000000" stroke="none">
<path d="M166 255 c-11 -28 -7 -35 20 -35 21 0 25 4 22 22 -4 27 -33 36 -42
13z"/>
<path d="M123 248 c-23 -29 -24 -38 -6 -31 18 7 33 22 33 36 0 11 -17 8 -27
-5z"/>
<path d="M220 253 c0 -14 15 -29 33 -36 22 -8 22 5 -1 26 -20 18 -32 22 -32
10z"/>
<path d="M115 197 c-19 -15 -13 -37 11 -37 8 0 14 10 14 25 0 29 0 29 -25 12z"/>
<path d="M160 179 c0 -27 3 -30 28 -27 21 2 28 9 30 31 3 24 0 27 -27 27 -28
0 -31 -3 -31 -31z"/>
<path d="M230 185 c0 -27 21 -33 39 -12 8 11 5 16 -14 25 -23 11 -25 10 -25
-13z"/>
<path d="M106 135 c4 -9 15 -20 25 -26 15 -7 19 -6 19 5 0 9 -9 20 -19 26 -27
14 -31 13 -25 -5z"/>
<path d="M236 134 c-22 -22 -20 -37 3 -25 20 11 36 41 21 41 -5 0 -16 -7 -24
-16z"/>
<path d="M160 132 c0 -2 5 -12 11 -23 8 -16 13 -18 25 -8 23 19 17 39 -11 37
-14 -1 -25 -4 -25 -6z"/>
</g>
</svg>
